<svg width="22" height="22" viewBox="0 0 22 22" xmlns="http://www.w3.org/2000/svg"><title>297FB6B7-CA21-482C-B9D2-BC7C52FA14F6</title><path d="M17.762 15.698h-1.604c-.612 0-.791-.488-1.879-1.576-.952-.917-1.36-1.036-1.597-1.036-.323 0-.42.091-.42.55v1.438c0 .395-.126.624-1.146.624-1.7 0-3.567-1.032-4.892-2.935C4.235 9.976 3.69 7.868 3.69 7.443c0-.238.092-.453.55-.453h1.604c.41 0 .565.179.718.623.785 2.286 2.108 4.283 2.652 4.283.204 0 .297-.094.297-.612V8.922c-.06-1.088-.637-1.177-.637-1.564 0-.18.153-.368.408-.368h2.52c.34 0 .46.181.46.59v3.177c0 .34.147.46.249.46.204 0 .374-.12.747-.494 1.156-1.291 1.972-3.28 1.972-3.28.102-.238.29-.453.698-.453h1.604c.485 0 .587.25.485.59-.204.934-2.158 3.687-2.158 3.687-.17.272-.238.408 0 .714.17.238.73.714 1.104 1.156.69.775 1.209 1.429 1.354 1.88.132.452-.098.68-.556.68M14.373 0H7.627C1.467 0 0 1.467 0 7.627v6.746C0 20.533 1.467 22 7.627 22h6.746C20.533 22 22 20.533 22 14.373V7.627C22 1.467 20.533 0 14.373 0" fill="#525E75" fill-rule="evenodd"/></svg>